<svg width="244" height="244" viewBox="0 0 244 244" fill="none" xmlns="http://www.w3.org/2000/svg">
<rect width="244" height="244" rx="45" fill="white"/>
<g clip-path="url(#clip0_2638_5219)">
<path d="M201.004 86.4766V119.856C166.541 119.856 138.523 147.892 138.523 182.336V109.71C155.312 95.2321 177.156 86.4766 201.004 86.4766Z" fill="#8743EF"/>
<path d="M138.497 109.703V204.245H105.117V182.329C105.117 153.336 118.061 127.286 138.497 109.703Z" fill="#9F1A22"/>
<path d="M138.505 39.8359V109.7C118.088 127.283 105.126 153.333 105.126 182.326V204.241C105.126 169.779 77.0719 141.725 42.6094 141.725V108.346C66.475 108.346 88.3007 117.101 105.126 131.58V39.8359H138.505Z" fill="#FF6E23"/>
</g>
<defs>
<clipPath id="clip0_2638_5219">
<rect width="158.392" height="164.411" fill="white" transform="translate(42.6094 39.8359)"/>
</clipPath>
</defs>
</svg>
