<svg width="847" height="137" viewBox="0 0 847 137" fill="none" xmlns="http://www.w3.org/2000/svg">
<g clip-path="url(#clip0_2830_5842)">
<path d="M77.7917 62.4755C75.5971 60.2179 72.9486 58.3639 69.9217 56.9513C68.5974 56.3334 67.2101 55.8163 65.7597 55.4001C66.6173 55.0721 67.4623 54.6812 68.2695 54.2523C70.7793 52.9155 72.9864 51.1876 74.8278 49.1318C76.6692 47.0634 78.1196 44.6545 79.1411 41.9555C80.1627 39.2565 80.6798 36.3305 80.6798 33.2531C80.6798 30.655 80.3015 28.1452 79.5574 25.7994C78.8132 23.4535 77.7412 21.259 76.3917 19.2537C75.0296 17.2483 73.3522 15.4196 71.4099 13.8052C69.4803 12.2035 67.2857 10.8288 64.8894 9.70629C62.5184 8.59642 59.9076 7.72618 57.1204 7.10819C54.3457 6.5028 51.3945 6.1875 48.3423 6.1875H0V108.131H50.7512C54.0304 108.131 57.1708 107.829 60.1094 107.223C63.0607 106.618 65.8227 105.722 68.3199 104.575C70.8298 103.427 73.1252 102.015 75.1431 100.375C77.161 98.7354 78.9141 96.8435 80.3519 94.7751C81.7897 92.6941 82.8996 90.3987 83.6437 87.952C84.3878 85.5052 84.7788 82.8693 84.7788 80.1451C84.7788 76.6641 84.1608 73.3723 82.9374 70.3833C81.714 67.3942 79.9862 64.733 77.779 62.4755H77.7917ZM16.7363 22.2806H47.5604C50.1963 22.2806 52.5926 22.5959 54.6484 23.2013C56.6663 23.8067 58.3942 24.6643 59.7941 25.7741C61.1562 26.8588 62.2157 28.2083 62.9472 29.7596C63.6787 31.3235 64.0444 33.127 64.0444 35.1324C64.0444 37.1377 63.6534 39.1304 62.8841 40.833C62.1148 42.5357 61.0175 44.0113 59.6176 45.2095C58.205 46.4328 56.4645 47.3913 54.4592 48.085C52.4413 48.7787 50.1459 49.1318 47.6613 49.1318H16.7363V22.2806ZM48.7207 92.0635H16.7363V64.5186H48.7459C55.3925 64.5186 60.3743 65.6789 63.5399 67.987C66.6299 70.2193 68.1308 73.5741 68.1308 78.2406C68.1308 87.5484 61.7742 92.0635 48.7081 92.0635H48.7207Z" fill="white"/>
<path d="M123.327 30.6906C120.01 31.8509 117.046 33.5535 114.536 35.7607C112.026 37.9552 109.895 40.6542 108.18 43.782C107.688 44.6901 107.221 45.636 106.792 46.6197V28.9375H90.5605V108.116H106.792V68.8549C106.792 64.7307 107.259 61.1111 108.192 58.0841C109.088 55.1455 110.601 52.6862 112.67 50.7691C114.751 48.8268 117.576 47.3512 121.069 46.3801C124.639 45.3837 129.154 44.8792 134.476 44.8792H139.092V28.9375H134.451C130.377 28.9375 126.644 29.5177 123.339 30.678L123.327 30.6906Z" fill="white"/>
<path d="M162.139 2.71875H145.227V22.6207H162.139V2.71875Z" fill="white"/>
<path d="M161.796 28.9609H145.564V108.14H161.796V28.9609Z" fill="white"/>
<path d="M228.371 45.3218C227.842 44.1488 227.261 43.0263 226.643 41.9417C224.84 38.8013 222.658 36.0897 220.161 33.8573C217.651 31.625 214.801 29.8845 211.685 28.6863C208.558 27.4882 205.152 26.8828 201.533 26.8828C198.417 26.8828 195.403 27.3368 192.578 28.2449C189.766 29.153 187.117 30.452 184.708 32.1295C182.312 33.8069 180.117 35.85 178.2 38.2337C176.296 40.6048 174.644 43.2912 173.294 46.2298C171.957 49.1685 170.898 52.3972 170.179 55.8403C169.447 59.2834 169.082 62.9661 169.082 66.7876C169.082 70.6091 169.447 74.2918 170.179 77.7349C170.91 81.1781 171.957 84.4194 173.294 87.3454C174.644 90.284 176.283 92.983 178.2 95.3667C180.117 97.7504 182.312 99.8188 184.708 101.484C187.117 103.161 189.766 104.46 192.578 105.368C195.403 106.276 198.405 106.73 201.533 106.73C205.152 106.73 208.558 106.125 211.685 104.927C214.801 103.729 217.664 101.988 220.161 99.7557C222.658 97.536 224.84 94.8118 226.643 91.6714C227.261 90.5993 227.842 89.4642 228.371 88.2913V92.9578C228.371 97.3468 227.804 101.383 226.669 104.952C225.546 108.483 223.944 111.561 221.914 114.058C219.896 116.542 217.437 118.485 214.611 119.834C211.786 121.184 208.583 121.865 205.089 121.865C202.226 121.865 199.515 121.411 197.018 120.515C194.533 119.62 192.338 118.384 190.522 116.833C188.706 115.294 187.256 113.465 186.209 111.384C185.175 109.341 184.658 107.109 184.658 104.775V103.514H168.426V104.775C168.426 107.764 168.855 110.665 169.7 113.402C170.545 116.139 171.768 118.724 173.345 121.083C174.908 123.441 176.825 125.598 179.02 127.49C181.214 129.382 183.699 131.021 186.411 132.358C189.11 133.695 192.074 134.742 195.201 135.461C198.329 136.18 201.646 136.558 205.064 136.558C208.974 136.558 212.707 136.079 216.175 135.145C219.656 134.199 222.898 132.812 225.811 131.021C228.724 129.23 231.386 127.023 233.706 124.45C236.014 121.89 238.007 118.951 239.621 115.735C241.223 112.532 242.472 108.975 243.329 105.154C244.174 101.345 244.616 97.2459 244.616 92.9578V28.9638H228.384V45.3091L228.371 45.3218ZM226.833 77.4449C225.836 80.5222 224.373 83.1582 222.494 85.277C220.627 87.3832 218.319 89.0228 215.608 90.1453C212.871 91.2804 209.718 91.8605 206.224 91.8605C202.731 91.8605 199.817 91.3182 197.232 90.2336C194.672 89.1742 192.502 87.585 190.749 85.5292C188.984 83.4482 187.634 80.8249 186.713 77.7476C185.78 74.6071 185.313 70.937 185.313 66.8128C185.313 62.6887 185.78 59.0059 186.713 55.8781C187.634 52.7881 188.984 50.1774 190.749 48.0964C192.49 46.0407 194.672 44.4641 197.219 43.4047C199.805 42.3327 202.832 41.803 206.212 41.803C209.592 41.803 212.871 42.3705 215.595 43.493C218.307 44.6029 220.615 46.2424 222.481 48.3361C224.348 50.4549 225.811 53.0908 226.82 56.1682C227.829 59.2834 228.346 62.8652 228.346 66.8128C228.346 70.7604 227.829 74.3423 226.82 77.4575L226.833 77.4449Z" fill="white"/>
<path d="M316.527 36.9607C314.08 33.7194 311.053 31.2096 307.522 29.4817C304.003 27.7538 299.98 26.8836 295.565 26.8836C291.958 26.8836 288.553 27.4764 285.438 28.6367C282.335 29.797 279.497 31.487 277.025 33.6689C274.566 35.8382 272.422 38.512 270.669 41.602C270.114 42.5731 269.61 43.5947 269.13 44.6541V2.71875H252.898V108.131H269.13V65.4011C269.13 61.6805 269.61 58.3257 270.568 55.4249C271.514 52.5619 272.876 50.1152 274.642 48.1603C276.382 46.218 278.552 44.7172 281.087 43.6956C283.647 42.6614 286.598 42.1317 289.877 42.1317C295.944 42.1317 300.333 43.8848 303.284 47.4792C306.26 51.0989 307.774 56.6608 307.774 64.0263V108.144H324.006V64.0263C324.006 58.3761 323.362 53.2177 322.101 48.69C320.827 44.1244 318.948 40.1768 316.527 36.9733V36.9607Z" fill="white"/>
<path d="M354.654 11.3125H338.422V28.9695H328.27V43.3095H338.422V81.499C338.422 86.0899 338.952 90.214 339.986 93.7202C341.033 97.2894 342.61 100.329 344.653 102.763C346.721 105.21 349.307 107.089 352.333 108.338C355.323 109.561 358.804 110.192 362.675 110.192C367.367 110.192 372.677 109.284 378.478 107.493L379.374 107.215V92.4716L377.785 92.9004C374.947 93.6698 372.45 94.2499 370.356 94.6157C368.288 94.9688 366.484 95.158 364.983 95.158C361.364 95.158 358.829 94.1364 357.202 92.0176C355.524 89.8357 354.667 86.3043 354.667 81.5369V43.3095H379.374V28.9695H354.667V11.3125H354.654Z" fill="white"/>
<path d="M419.259 30.6906C415.942 31.8509 412.978 33.5535 410.468 35.7607C407.958 37.9552 405.827 40.6542 404.111 43.782C403.619 44.6901 403.153 45.636 402.724 46.6197V28.9375H386.492V108.116H402.724V68.8549C402.724 64.7307 403.191 61.1111 404.124 58.0841C405.019 55.1455 406.533 52.6862 408.601 50.7691C410.682 48.8268 413.507 47.3512 417.001 46.3801C420.57 45.3837 425.085 44.8792 430.408 44.8792H435.024V28.9375H430.382C426.309 28.9375 422.575 29.5177 419.271 30.678L419.259 30.6906Z" fill="white"/>
<path d="M507.528 46.7343C505.989 43.657 504.097 40.8571 501.89 38.4103C499.67 35.9509 497.135 33.8447 494.348 32.1421C491.561 30.4394 488.471 29.1278 485.154 28.2323C481.849 27.3368 478.267 26.8828 474.522 26.8828C470.776 26.8828 467.219 27.3368 463.902 28.2323C460.573 29.1278 457.47 30.4394 454.683 32.1421C451.895 33.8447 449.36 35.9509 447.141 38.4103C444.933 40.8571 443.029 43.657 441.503 46.7343C439.977 49.7991 438.791 53.2043 437.984 56.8619C437.177 60.4942 436.773 64.4291 436.773 68.5407C436.773 72.6523 437.177 76.5746 437.984 80.2195C438.791 83.8771 439.977 87.2823 441.503 90.3597C443.042 93.4497 444.934 96.2496 447.153 98.6963C449.373 101.143 451.908 103.249 454.683 104.952C457.47 106.667 460.573 107.991 463.902 108.887C467.219 109.782 470.801 110.236 474.522 110.236C478.242 110.236 481.849 109.782 485.154 108.887C488.471 107.991 491.573 106.667 494.348 104.952C497.135 103.237 499.67 101.13 501.877 98.6963C504.097 96.2496 505.989 93.4497 507.528 90.3597C509.054 87.2823 510.239 83.8644 511.046 80.2195C511.854 76.5746 512.257 72.6523 512.257 68.5407C512.257 64.4291 511.854 60.5068 511.046 56.8619C510.239 53.2043 509.054 49.7991 507.528 46.7343ZM494.512 79.7277C493.515 82.969 492.078 85.7689 490.224 88.0265C488.395 90.2588 486.137 91.9993 483.514 93.1848C480.878 94.383 477.864 94.9884 474.534 94.9884C471.205 94.9884 468.19 94.383 465.542 93.1848C462.918 91.9993 460.648 90.2588 458.807 88.0265C456.94 85.7689 455.502 82.9816 454.506 79.7277C453.497 76.4485 452.993 72.6775 452.993 68.5407C452.993 64.4039 453.497 60.6455 454.506 57.3663C455.502 54.1376 456.953 51.3504 458.807 49.0928C460.648 46.8604 462.918 45.12 465.542 43.9344C468.19 42.7363 471.217 42.1309 474.534 42.1309C477.851 42.1309 480.878 42.7363 483.514 43.9344C486.137 45.12 488.395 46.8478 490.224 49.0802C492.078 51.3251 493.515 54.1124 494.512 57.3537C495.521 60.6329 496.025 64.4039 496.025 68.5407C496.025 72.6775 495.508 76.4485 494.512 79.7277Z" fill="white"/>
<path d="M587.953 46.7343C586.415 43.657 584.523 40.8571 582.316 38.4103C580.096 35.9509 577.561 33.8447 574.774 32.1421C571.986 30.4394 568.896 29.1278 565.579 28.2323C562.275 27.3368 558.693 26.8828 554.947 26.8828C551.202 26.8828 547.645 27.3368 544.328 28.2323C540.998 29.1278 537.896 30.4394 535.108 32.1421C532.321 33.8447 529.786 35.9509 527.566 38.4103C525.359 40.8571 523.455 43.657 521.929 46.7343C520.403 49.7991 519.217 53.2043 518.41 56.8619C517.603 60.4942 517.199 64.4291 517.199 68.5407C517.199 72.6523 517.603 76.5746 518.41 80.2195C519.217 83.8771 520.403 87.2823 521.929 90.3597C523.467 93.4497 525.359 96.2496 527.579 98.6963C529.799 101.143 532.334 103.249 535.108 104.952C537.896 106.667 540.998 107.991 544.328 108.887C547.645 109.782 551.227 110.236 554.947 110.236C558.668 110.236 562.275 109.782 565.579 108.887C568.896 107.991 571.999 106.667 574.774 104.952C577.561 103.237 580.096 101.13 582.303 98.6963C584.523 96.2496 586.415 93.4497 587.953 90.3597C589.479 87.2823 590.665 83.8644 591.472 80.2195C592.279 76.5746 592.683 72.6523 592.683 68.5407C592.683 64.4291 592.279 60.5068 591.472 56.8619C590.665 53.2043 589.479 49.7991 587.953 46.7343ZM574.938 79.7277C573.941 82.969 572.503 85.7689 570.649 88.0265C568.821 90.2588 566.563 91.9993 563.94 93.1848C561.304 94.383 558.29 94.9884 554.96 94.9884C551.63 94.9884 548.616 94.383 545.968 93.1848C543.344 91.9993 541.074 90.2588 539.233 88.0265C537.366 85.7689 535.928 82.9816 534.932 79.7277C533.923 76.4485 533.418 72.6775 533.418 68.5407C533.418 64.4039 533.923 60.6455 534.932 57.3663C535.928 54.1376 537.379 51.3504 539.233 49.0928C541.074 46.8604 543.344 45.12 545.968 43.9344C548.616 42.7363 551.643 42.1309 554.96 42.1309C558.277 42.1309 561.304 42.7363 563.94 43.9344C566.563 45.12 568.821 46.8478 570.649 49.0802C572.503 51.3251 573.941 54.1124 574.938 57.3537C575.947 60.6329 576.451 64.4039 576.451 68.5407C576.451 72.6775 575.934 76.4485 574.938 79.7277Z" fill="white"/>
<path d="M621.978 11.3125H605.747V28.9695H595.594V43.3095H605.747V81.499C605.747 86.0899 606.276 90.214 607.31 93.7202C608.357 97.2894 609.934 100.329 611.977 102.763C614.045 105.21 616.631 107.089 619.658 108.338C622.647 109.561 626.128 110.192 630 110.192C634.691 110.192 640.001 109.284 645.803 107.493L646.698 107.215V92.4716L645.109 92.9004C642.271 93.6698 639.774 94.2499 637.68 94.6157C635.612 94.9688 633.809 95.158 632.308 95.158C628.688 95.158 626.153 94.1364 624.526 92.0176C622.849 89.8357 621.991 86.3043 621.991 81.5369V43.3095H646.698V28.9695H621.991V11.3125H621.978Z" fill="white"/>
<path d="M718.847 76.8095C717.889 74.4132 716.577 72.3195 714.938 70.5917C713.311 68.8764 711.419 67.4386 709.3 66.2909C707.232 65.1811 705.012 64.2478 702.716 63.5289C700.446 62.81 698.113 62.2298 695.78 61.7884C693.497 61.3596 691.29 60.9812 689.196 60.6533L684.227 59.8587L680.027 59.1525C678.653 58.9128 677.303 58.6228 676.017 58.2948C674.755 57.9669 673.57 57.5633 672.473 57.1093C671.438 56.6805 670.518 56.1634 669.761 55.558C669.042 54.9905 668.475 54.322 668.058 53.5653C667.667 52.8464 667.466 51.9762 667.466 50.9924C667.466 49.6429 667.831 48.4448 668.575 47.3349C669.345 46.1872 670.455 45.1782 671.892 44.3458C673.381 43.4756 675.184 42.7945 677.278 42.3153C679.397 41.8234 681.793 41.5838 684.391 41.5838C687.241 41.5838 689.802 41.8865 691.984 42.4792C694.128 43.0594 695.944 43.8918 697.369 44.9386C698.769 45.9602 699.841 47.1962 700.56 48.6213C701.279 50.0465 701.644 51.6609 701.644 53.4266V54.6878H717.536V53.4266C717.536 49.3907 716.792 45.6953 715.303 42.4288C713.815 39.1496 711.608 36.3119 708.745 34.0039C705.907 31.7211 702.401 29.9428 698.29 28.7194C694.228 27.5086 689.549 26.8906 684.366 26.8906C679.182 26.8906 674.831 27.4582 670.846 28.568C666.822 29.6905 663.341 31.3301 660.516 33.4237C657.653 35.5426 655.421 38.1533 653.882 41.1676C652.344 44.1819 651.562 47.5871 651.562 51.2951C651.562 54.2337 652.028 56.8444 652.962 59.0516C653.882 61.2461 655.144 63.1757 656.707 64.7649C658.246 66.3288 660.05 67.6657 662.068 68.7377C664.035 69.7719 666.116 70.6547 668.273 71.3232C670.392 71.9916 672.561 72.5592 674.717 72.988C676.824 73.4168 678.867 73.7952 680.771 74.1231L685.753 74.9933C687.342 75.2708 688.944 75.5609 690.533 75.8762C692.097 76.1789 693.611 76.5446 695.01 76.9482C696.398 77.3518 697.722 77.8184 698.92 78.3608C700.068 78.8779 701.064 79.4958 701.884 80.2021C702.666 80.8832 703.297 81.6777 703.751 82.5732C704.192 83.4434 704.407 84.4903 704.407 85.6758C704.407 87.2271 704.028 88.564 703.259 89.7495C702.477 90.9603 701.304 91.9945 699.79 92.8269C698.201 93.6971 696.196 94.3782 693.85 94.8322C691.454 95.2989 688.679 95.5385 685.602 95.5385C682.196 95.5385 679.207 95.2484 676.71 94.6682C674.276 94.1007 672.246 93.2683 670.669 92.1963C669.143 91.1621 667.995 89.8756 667.264 88.3748C666.52 86.8487 666.141 85.0704 666.141 83.0777V81.8165H650.25V83.0777C650.25 87.4037 651.007 91.3134 652.508 94.6682C654.021 98.0609 656.304 100.949 659.306 103.27C662.269 105.565 666.003 107.318 670.417 108.504C674.768 109.664 679.889 110.244 685.64 110.244C691.391 110.244 696.095 109.702 700.333 108.642C704.621 107.57 708.278 105.956 711.204 103.85C714.168 101.718 716.451 99.0699 717.977 95.9547C719.503 92.8647 720.273 89.2829 720.273 85.3353C720.273 82.0813 719.781 79.2184 718.822 76.8221L718.847 76.8095Z" fill="white"/>
<g clip-path="url(#clip1_2830_5842)">
<path d="M846.795 32.5781V55.898C822.719 55.898 803.145 75.4846 803.145 99.5486V48.8099C814.874 38.695 830.134 32.5781 846.795 32.5781Z" fill="#59856D"/>
<path d="M803.13 48.8125V114.862H779.811V99.5511C779.811 79.296 788.853 61.0967 803.13 48.8125Z" fill="#FFF5F5"/>
<path d="M803.138 0V48.809C788.874 61.0932 779.818 79.2925 779.818 99.5476V114.859C779.818 90.7822 760.219 71.1829 736.143 71.1829V47.8631C752.816 47.8631 768.064 53.9799 779.818 64.0949V0H803.138Z" fill="#269E5F"/>
</g>
</g>
<defs>
<clipPath id="clip0_2830_5842">
<rect width="846.791" height="136.577" fill="white"/>
</clipPath>
<clipPath id="clip1_2830_5842">
<rect width="110.658" height="114.862" fill="white" transform="translate(736.143)"/>
</clipPath>
</defs>
</svg>
