<svg width="900" height="146" viewBox="0 0 900 146" fill="none" xmlns="http://www.w3.org/2000/svg">
<g clip-path="url(#clip0_2557_5114)">
<path d="M82.6797 66.3874C80.3473 63.9879 77.5324 62.0174 74.3153 60.5161C72.9078 59.8593 71.4333 59.3097 69.8917 58.8674C70.8032 58.5188 71.7014 58.1033 72.5593 57.6475C75.2268 56.2266 77.5726 54.3902 79.5297 52.2053C81.4867 50.0069 83.0283 47.4466 84.114 44.578C85.1998 41.7094 85.7494 38.5996 85.7494 35.3288C85.7494 32.5675 85.3473 29.9 84.5564 27.4067C83.7655 24.9134 82.6261 22.581 81.1918 20.4497C79.7441 18.3184 77.9613 16.3747 75.897 14.6589C73.8461 12.9565 71.5137 11.4954 68.9668 10.3024C66.4467 9.12278 63.672 8.19786 60.7096 7.54104C57.7605 6.89762 54.6239 6.5625 51.3799 6.5625H0V114.912H53.9402C57.4254 114.912 60.7632 114.59 63.8865 113.947C67.0231 113.304 69.9588 112.352 72.6129 111.132C75.2804 109.912 77.72 108.411 79.8648 106.668C82.0095 104.926 83.8728 102.915 85.4009 100.717C86.929 98.5048 88.1086 96.0652 88.8995 93.4647C89.6904 90.8642 90.1059 88.0626 90.1059 85.1672C90.1059 81.4676 89.4491 77.969 88.1488 74.7921C86.8486 71.6152 85.0121 68.7868 82.6663 66.3874H82.6797ZM17.7879 23.6668H50.5489C53.3504 23.6668 55.8973 24.0019 58.0823 24.6453C60.227 25.2888 62.0634 26.2003 63.5513 27.3799C64.999 28.5327 66.125 29.967 66.9025 31.6158C67.68 33.2779 68.0687 35.1948 68.0687 37.3261C68.0687 39.4575 67.6532 41.5754 66.8355 43.385C66.0178 45.1946 64.8516 46.763 63.3637 48.0364C61.8624 49.3367 60.0125 50.3554 57.8812 51.0927C55.7364 51.8299 53.2968 52.2053 50.6561 52.2053H17.7879V23.6668ZM51.7821 97.8346H17.7879V68.5589H51.8089C58.8731 68.5589 64.168 69.7921 67.5325 72.2452C70.8167 74.6178 72.4118 78.1834 72.4118 83.1431C72.4118 93.0358 65.6559 97.8346 51.7687 97.8346H51.7821Z" fill="white"/>
<path d="M131.067 32.6289C127.542 33.8621 124.392 35.6717 121.724 38.0175C119.057 40.3499 116.791 43.2185 114.968 46.5429C114.446 47.508 113.95 48.5134 113.494 49.5589V30.7656H96.2422V114.92H113.494V73.1913C113.494 68.808 113.99 64.9608 114.982 61.7437C115.934 58.6204 117.542 56.0065 119.74 53.969C121.952 51.9047 124.955 50.3364 128.668 49.3042C132.461 48.2453 137.26 47.7091 142.917 47.7091H147.823V30.7656H142.89C138.561 30.7656 134.593 31.3822 131.081 32.6155L131.067 32.6289Z" fill="white"/>
<path d="M172.327 2.89062H154.352V24.0431H172.327V2.89062Z" fill="white"/>
<path d="M171.947 30.7812H154.695V114.936H171.947V30.7812Z" fill="white"/>
<path d="M242.728 48.1601C242.165 46.9134 241.548 45.7204 240.891 44.5676C238.975 41.2299 236.656 38.3479 234.001 35.9753C231.334 33.6026 228.304 31.7528 224.993 30.4794C221.669 29.2059 218.05 28.5625 214.203 28.5625C210.892 28.5625 207.688 29.0451 204.685 30.0102C201.696 30.9753 198.881 32.356 196.321 34.1388C193.774 35.9216 191.442 38.0932 189.404 40.6267C187.38 43.1467 185.624 46.0019 184.19 49.1252C182.769 52.2485 181.643 55.6801 180.879 59.3395C180.101 62.999 179.713 66.9131 179.713 70.9747C179.713 75.0363 180.101 78.9505 180.879 82.61C181.656 86.2694 182.769 89.7144 184.19 92.8243C185.624 95.9476 187.367 98.8162 189.404 101.35C191.442 103.883 193.774 106.081 196.321 107.851C198.881 109.634 201.696 111.014 204.685 111.98C207.688 112.945 210.878 113.427 214.203 113.427C218.05 113.427 221.669 112.784 224.993 111.51C228.304 110.237 231.347 108.387 234.001 106.014C236.656 103.655 238.975 100.76 240.891 97.4221C241.548 96.2827 242.165 95.0763 242.728 93.8296V98.7893C242.728 103.454 242.125 107.744 240.918 111.537C239.725 115.29 238.023 118.561 235.865 121.215C233.72 123.856 231.106 125.92 228.103 127.355C225.101 128.789 221.696 129.513 217.983 129.513C214.94 129.513 212.058 129.03 209.404 128.078C206.763 127.127 204.431 125.813 202.501 124.164C200.57 122.529 199.029 120.585 197.916 118.374C196.817 116.202 196.267 113.829 196.267 111.349V110.009H179.016V111.349C179.016 114.526 179.471 117.609 180.37 120.518C181.268 123.427 182.568 126.175 184.243 128.682C185.906 131.188 187.943 133.481 190.276 135.491C192.608 137.502 195.249 139.245 198.131 140.665C200.999 142.086 204.149 143.199 207.474 143.963C210.798 144.727 214.323 145.129 217.956 145.129C222.112 145.129 226.079 144.62 229.766 143.628C233.465 142.622 236.91 141.148 240.007 139.245C243.103 137.341 245.932 134.995 248.398 132.261C250.851 129.54 252.969 126.416 254.685 122.998C256.387 119.593 257.714 115.813 258.626 111.752C259.524 107.703 259.993 103.347 259.993 98.7893V30.7743H242.741V48.1467L242.728 48.1601ZM241.092 82.3017C240.033 85.5724 238.479 88.374 236.481 90.6259C234.497 92.8645 232.044 94.6071 229.162 95.8001C226.254 97.0065 222.902 97.6231 219.189 97.6231C215.476 97.6231 212.38 97.0467 209.632 95.894C206.911 94.768 204.605 93.079 202.742 90.894C200.865 88.6823 199.431 85.8941 198.452 82.6234C197.46 79.2856 196.964 75.3849 196.964 71.0016C196.964 66.6182 197.46 62.7041 198.452 59.3797C199.431 56.0956 200.865 53.3209 202.742 51.1091C204.592 48.9241 206.911 47.2486 209.618 46.1226C212.366 44.9832 215.583 44.4202 219.176 44.4202C222.768 44.4202 226.254 45.0234 229.149 46.2164C232.031 47.396 234.484 49.1386 236.468 51.3638C238.452 53.6158 240.007 56.4173 241.079 59.688C242.151 62.999 242.701 66.8059 242.701 71.0016C242.701 75.1972 242.151 79.0041 241.079 82.3151L241.092 82.3017Z" fill="white"/>
<path d="M336.415 39.2842C333.815 35.8392 330.598 33.1717 326.845 31.3352C323.105 29.4988 318.829 28.5739 314.137 28.5739C310.303 28.5739 306.684 29.2039 303.373 30.4371C300.075 31.6704 297.059 33.4666 294.432 35.7856C291.818 38.0912 289.539 40.933 287.676 44.2171C287.086 45.2492 286.55 46.335 286.041 47.461V2.89062H268.789V114.927H286.041V69.5116C286.041 65.5573 286.55 61.9916 287.569 58.9086C288.574 55.8657 290.022 53.2652 291.899 51.1875C293.748 49.1232 296.054 47.528 298.748 46.4423C301.47 45.3431 304.606 44.7801 308.091 44.7801C314.539 44.7801 319.204 46.6433 322.341 50.4636C325.504 54.3108 327.113 60.2222 327.113 68.0505V114.94H344.364V68.0505C344.364 62.0452 343.681 56.5628 342.34 51.7505C340.986 46.898 338.989 42.7024 336.415 39.2976V39.2842Z" fill="white"/>
<path d="M376.941 12.0156H359.689V30.7821H348.898V46.0232H359.689V86.6124C359.689 91.4917 360.252 95.875 361.351 99.6015C362.464 103.395 364.139 106.625 366.311 109.213C368.509 111.813 371.257 113.81 374.474 115.137C377.651 116.438 381.351 117.108 385.466 117.108C390.453 117.108 396.096 116.143 402.262 114.239L403.214 113.944V98.2744L401.525 98.7302C398.509 99.5478 395.855 100.164 393.63 100.553C391.431 100.929 389.514 101.13 387.919 101.13C384.072 101.13 381.378 100.044 379.649 97.7918C377.866 95.4728 376.954 91.7195 376.954 86.6526V46.0232H403.214V30.7821H376.954V12.0156H376.941Z" fill="white"/>
<path d="M445.599 32.6289C442.073 33.8621 438.923 35.6717 436.256 38.0175C433.588 40.3499 431.323 43.2185 429.5 46.5429C428.977 47.508 428.481 48.5134 428.025 49.5589V30.7656H410.773V114.92H428.025V73.1913C428.025 68.808 428.521 64.9608 429.513 61.7437C430.465 58.6204 432.073 56.0065 434.272 53.969C436.484 51.9047 439.486 50.3364 443.199 49.3042C446.993 48.2453 451.792 47.7091 457.448 47.7091H462.354V30.7656H457.422C453.092 30.7656 449.124 31.3822 445.612 32.6155L445.599 32.6289Z" fill="white"/>
<path d="M539.411 49.6614C537.776 46.3907 535.765 43.4148 533.419 40.8143C531.06 38.2004 528.365 35.9619 525.403 34.1522C522.441 32.3426 519.157 30.9485 515.631 29.9968C512.119 29.0451 508.312 28.5625 504.331 28.5625C500.35 28.5625 496.57 29.0451 493.044 29.9968C489.505 30.9485 486.208 32.3426 483.246 34.1522C480.283 35.9619 477.589 38.2004 475.23 40.8143C472.884 43.4148 470.86 46.3907 469.238 49.6614C467.616 52.9187 466.356 56.538 465.498 60.4253C464.64 64.2858 464.211 68.4681 464.211 72.838C464.211 77.2079 464.64 81.3767 465.498 85.2507C466.356 89.138 467.616 92.7573 469.238 96.028C470.873 99.3121 472.884 102.288 475.243 104.888C477.602 107.489 480.297 109.728 483.246 111.537C486.208 113.36 489.505 114.768 493.044 115.719C496.57 116.671 500.377 117.154 504.331 117.154C508.285 117.154 512.119 116.671 515.631 115.719C519.157 114.768 522.454 113.36 525.403 111.537C528.365 109.714 531.06 107.476 533.406 104.888C535.765 102.288 537.776 99.3121 539.411 96.028C541.033 92.7573 542.293 89.1246 543.151 85.2507C544.009 81.3767 544.438 77.2079 544.438 72.838C544.438 68.4681 544.009 64.2992 543.151 60.4253C542.293 56.538 541.033 52.9187 539.411 49.6614ZM525.577 84.7279C524.518 88.1729 522.99 91.1487 521.02 93.5481C519.076 95.9208 516.677 97.7706 513.888 99.0306C511.087 100.304 507.883 100.947 504.344 100.947C500.806 100.947 497.602 100.304 494.787 99.0306C491.999 97.7706 489.586 95.9208 487.629 93.5481C485.645 91.1487 484.117 88.1863 483.058 84.7279C481.985 81.2427 481.449 77.2347 481.449 72.838C481.449 68.4413 481.985 64.4467 483.058 60.9615C484.117 57.5299 485.658 54.5675 487.629 52.168C489.586 49.7954 491.999 47.9456 494.787 46.6856C497.602 45.4121 500.819 44.7687 504.344 44.7687C507.87 44.7687 511.087 45.4121 513.888 46.6856C516.677 47.9456 519.076 49.782 521.02 52.1546C522.99 54.5407 524.518 57.5031 525.577 60.9481C526.65 64.4333 527.186 68.4413 527.186 72.838C527.186 77.2347 526.636 81.2427 525.577 84.7279Z" fill="white"/>
<path d="M624.895 49.6614C623.26 46.3907 621.249 43.4148 618.903 40.8143C616.544 38.2004 613.85 35.9619 610.887 34.1522C607.925 32.3426 604.641 30.9485 601.115 29.9968C597.603 29.0451 593.797 28.5625 589.815 28.5625C585.834 28.5625 582.054 29.0451 578.529 29.9968C574.99 30.9485 571.692 32.3426 568.73 34.1522C565.767 35.9619 563.073 38.2004 560.714 40.8143C558.368 43.4148 556.344 46.3907 554.722 49.6614C553.1 52.9187 551.84 56.538 550.982 60.4253C550.124 64.2858 549.695 68.4681 549.695 72.838C549.695 77.2079 550.124 81.3767 550.982 85.2507C551.84 89.138 553.1 92.7573 554.722 96.028C556.357 99.3121 558.368 102.288 560.727 104.888C563.087 107.489 565.781 109.728 568.73 111.537C571.692 113.36 574.99 114.768 578.529 115.719C582.054 116.671 585.861 117.154 589.815 117.154C593.77 117.154 597.603 116.671 601.115 115.719C604.641 114.768 607.938 113.36 610.887 111.537C613.85 109.714 616.544 107.476 618.89 104.888C621.249 102.288 623.26 99.3121 624.895 96.028C626.517 92.7573 627.777 89.1246 628.635 85.2507C629.493 81.3767 629.922 77.2079 629.922 72.838C629.922 68.4681 629.493 64.2992 628.635 60.4253C627.777 56.538 626.517 52.9187 624.895 49.6614ZM611.062 84.7279C610.003 88.1729 608.475 91.1487 606.504 93.5481C604.56 95.9208 602.161 97.7706 599.373 99.0306C596.571 100.304 593.368 100.947 589.829 100.947C586.29 100.947 583.086 100.304 580.271 99.0306C577.483 97.7706 575.07 95.9208 573.113 93.5481C571.129 91.1487 569.601 88.1863 568.542 84.7279C567.47 81.2427 566.934 77.2347 566.934 72.838C566.934 68.4413 567.47 64.4467 568.542 60.9615C569.601 57.5299 571.143 54.5675 573.113 52.168C575.07 49.7954 577.483 47.9456 580.271 46.6856C583.086 45.4121 586.303 44.7687 589.829 44.7687C593.354 44.7687 596.571 45.4121 599.373 46.6856C602.161 47.9456 604.56 49.782 606.504 52.1546C608.475 54.5407 610.003 57.5031 611.062 60.9481C612.134 64.4333 612.67 68.4413 612.67 72.838C612.67 77.2347 612.121 81.2427 611.062 84.7279Z" fill="white"/>
<path d="M661.058 12.0156H643.806V30.7821H633.016V46.0232H643.806V86.6124C643.806 91.4917 644.369 95.875 645.469 99.6015C646.581 103.395 648.257 106.625 650.428 109.213C652.627 111.813 655.375 113.81 658.592 115.137C661.769 116.438 665.468 117.108 669.583 117.108C674.57 117.108 680.213 116.143 686.379 114.239L687.331 113.944V98.2744L685.642 98.7302C682.626 99.5478 679.972 100.164 677.747 100.553C675.549 100.929 673.632 101.13 672.037 101.13C668.189 101.13 665.495 100.044 663.766 97.7918C661.983 95.4728 661.072 91.7195 661.072 86.6526V46.0232H687.331V30.7821H661.072V12.0156H661.058Z" fill="white"/>
<path d="M764.009 81.6336C762.991 79.0868 761.596 76.8616 759.854 75.0252C758.125 73.2021 756.114 71.674 753.862 70.4542C751.664 69.2746 749.304 68.2826 746.865 67.5186C744.452 66.7545 741.972 66.1379 739.492 65.6687C737.066 65.213 734.72 64.8108 732.495 64.4623L727.214 63.6178L722.75 62.8672C721.289 62.6125 719.854 62.3042 718.487 61.9556C717.147 61.6071 715.887 61.1782 714.721 60.6956C713.621 60.2399 712.643 59.6903 711.838 59.0468C711.074 58.4436 710.471 57.7332 710.029 56.9289C709.613 56.1648 709.399 55.2399 709.399 54.1944C709.399 52.7601 709.788 51.4866 710.578 50.307C711.396 49.0872 712.576 48.0148 714.104 47.1301C715.686 46.2052 717.602 45.4814 719.828 44.972C722.08 44.4492 724.627 44.1945 727.388 44.1945C730.417 44.1945 733.138 44.5162 735.457 45.1462C737.736 45.7629 739.667 46.6476 741.181 47.7601C742.669 48.8459 743.809 50.1596 744.573 51.6743C745.337 53.189 745.725 54.9048 745.725 56.7815V58.1219H762.615V56.7815C762.615 52.492 761.824 48.5644 760.243 45.0926C758.661 41.6074 756.315 38.5914 753.272 36.1383C750.256 33.7121 746.53 31.822 742.16 30.5218C737.843 29.235 732.87 28.5781 727.361 28.5781C721.852 28.5781 717.227 29.1813 712.991 30.3609C708.715 31.554 705.016 33.2966 702.013 35.5217C698.97 37.7737 696.597 40.5485 694.962 43.7522C693.327 46.9559 692.496 50.5751 692.496 54.5161C692.496 57.6394 692.992 60.4141 693.984 62.7599C694.962 65.0923 696.303 67.1432 697.965 68.8322C699.6 70.4944 701.517 71.9153 703.662 73.0547C705.753 74.1539 707.965 75.0922 710.257 75.8026C712.509 76.5131 714.814 77.1163 717.106 77.572C719.345 78.0278 721.517 78.4299 723.541 78.7785L728.836 79.7034C730.525 79.9983 732.227 80.3066 733.916 80.6417C735.578 80.9634 737.187 81.3521 738.675 81.7811C740.149 82.21 741.557 82.706 742.83 83.2824C744.05 83.832 745.109 84.4888 745.98 85.2395C746.811 85.9633 747.481 86.8078 747.964 87.7596C748.433 88.6845 748.661 89.7971 748.661 91.0571C748.661 92.7059 748.259 94.1268 747.441 95.3868C746.61 96.6736 745.363 97.7728 743.755 98.6575C742.066 99.5824 739.935 100.306 737.441 100.789C734.894 101.285 731.945 101.54 728.675 101.54C725.055 101.54 721.879 101.231 719.224 100.615C716.637 100.011 714.479 99.1267 712.804 97.9873C711.182 96.8881 709.962 95.5208 709.184 93.9257C708.394 92.3037 707.991 90.4137 707.991 88.2957V86.9553H691.102V88.2957C691.102 92.8935 691.906 97.049 693.501 100.615C695.11 104.22 697.536 107.29 700.726 109.757C703.876 112.196 707.844 114.059 712.536 115.319C717.16 116.553 722.602 117.169 728.715 117.169C734.827 117.169 739.827 116.593 744.331 115.467C748.889 114.328 752.776 112.612 755.886 110.373C759.036 108.108 761.462 105.293 763.084 101.982C764.706 98.6977 765.524 94.8908 765.524 90.6952C765.524 87.2368 765.001 84.1939 763.983 81.647L764.009 81.6336Z" fill="white"/>
<g clip-path="url(#clip1_2557_5114)">
<path d="M900.003 34.6328V59.418C874.413 59.418 853.609 80.2354 853.609 105.811V51.8846C866.076 41.1341 882.295 34.6328 900.003 34.6328Z" fill="#8743EF"/>
<path d="M853.59 51.8828V122.083H828.805V105.81C828.805 84.2818 838.416 64.9389 853.59 51.8828Z" fill="#9F1A22"/>
<path d="M853.596 0V51.8759C838.435 64.932 828.811 84.2749 828.811 105.803V122.076C828.811 96.4865 807.98 75.6557 782.391 75.6557V50.8706C800.112 50.8706 816.318 57.3718 828.811 68.1223V0H853.596Z" fill="#FF6E23"/>
</g>
</g>
<defs>
<clipPath id="clip0_2557_5114">
<rect width="900" height="145.159" fill="white"/>
</clipPath>
<clipPath id="clip1_2557_5114">
<rect width="117.611" height="122.08" fill="white" transform="translate(782.391)"/>
</clipPath>
</defs>
</svg>
