<?xml version="1.0" encoding="UTF-8"?>
<svg id="Layer_1" data-name="Layer 1" xmlns="http://www.w3.org/2000/svg" viewBox="0 0 129.54 23.77">
  <defs>
    <style>
      .cls-1 {
        fill: #14161a;
      }
    </style>
  </defs>
  <path class="cls-1" d="M22.87,20.57c-.08-.35-.43-.63-.78-.63h-9.5c-.51,0-1.02-.41-1.14-.92l-.64-2.73c-.41-1.76.67-3.18,2.43-3.18h4.16c.35,0,.57-.28.48-.63l-.52-2.21c-.08-.35-.43-.63-.78-.63h-5.53c-1.12,0-2.3-.59-3.1-1.56l-2.65-3.19c-.51-.62-.25-1.4.47-1.4h8.57c.35,0,.57-.28.48-.63l-.52-2.21c-.08-.35-.43-.63-.78-.63H1.31C.3,0-.27.91.13,1.91l7.88,20.1c.32.81,1.15,1.4,1.97,1.4h12.94c.35,0,.57-.28.48-.63l-.52-2.21Z"/>
  <path class="cls-1" d="M35.89,8.47c-.55-.78-1.23-1.41-2.02-1.88-.98-.58-2.07-.88-3.23-.88-1.55,0-2.92.39-4.09,1.16-1.16.77-2.07,1.85-2.7,3.21-.63,1.36-.95,2.92-.95,4.65s.32,3.27.95,4.62c.63,1.36,1.54,2.45,2.7,3.22,1.16.78,2.54,1.17,4.09,1.17,1.23,0,2.37-.31,3.39-.91.83-.49,1.52-1.15,2.09-1.96v2.55h3.41V0h-3.64v8.47ZM35.29,17.79h0c-.4.85-.95,1.52-1.63,1.98-.68.46-1.48.69-2.37.69-1.34,0-2.46-.49-3.31-1.47-.86-.98-1.3-2.42-1.3-4.26s.44-3.31,1.3-4.29c.85-.98,1.97-1.47,3.31-1.47.85,0,1.64.22,2.33.66s1.25,1.08,1.66,1.92c.41.85.62,1.9.62,3.12s-.2,2.25-.61,3.12Z"/>
  <path class="cls-1" d="M52.81,16.23h.01c0,.84-.17,1.59-.51,2.23-.33.64-.79,1.14-1.36,1.49-.56.35-1.2.53-1.88.53-1.01,0-1.84-.31-2.46-.92-.62-.61-.93-1.63-.93-3.05V6.03h-3.64v11.13c0,1.48.25,2.72.74,3.7.5.99,1.22,1.72,2.14,2.19.91.46,1.96.7,3.12.7s2.28-.3,3.25-.88c.73-.44,1.31-.97,1.75-1.58v2.14h3.41V6.03h-3.64v10.2Z"/>
  <path class="cls-1" d="M70.34,16.3c-.19,1.32-.66,2.36-1.4,3.09-.74.73-1.7,1.1-2.86,1.1-.89,0-1.67-.24-2.32-.7-.65-.47-1.17-1.14-1.54-2-.37-.87-.56-1.9-.56-3.06s.19-2.21.56-3.06c.37-.84.89-1.51,1.54-1.99h-.01c.65-.47,1.43-.71,2.32-.71,1.14,0,2.09.37,2.84,1.1.75.73,1.22,1.77,1.38,3.09l.02.18h3.8l-.03-.23c-.2-1.5-.66-2.82-1.39-3.92-.73-1.1-1.67-1.97-2.8-2.57s-2.43-.91-3.86-.91c-1.55,0-2.95.39-4.18,1.17-1.22.77-2.2,1.85-2.89,3.2-.7,1.35-1.05,2.91-1.05,4.64s.35,3.33,1.03,4.69c.69,1.36,1.65,2.44,2.86,3.21,1.21.77,2.63,1.15,4.23,1.15,1.46,0,2.77-.3,3.91-.9s2.08-1.47,2.8-2.57c.72-1.1,1.17-2.43,1.35-3.95l.03-.22h-3.76l-.02.17Z"/>
  <path class="cls-1" d="M82.1,5.74v-.03c-1.35,0-2.56.27-3.6.81-1.04.54-1.88,1.31-2.48,2.29-.6.98-.93,2.14-.98,3.45v.21h3.34v-.19c.05-1.12.4-2,1.05-2.64.65-.63,1.55-.95,2.67-.95s1.9.32,2.48.94c.58.63.88,1.53.88,2.67v1.02c-.59-.07-1.11-.12-1.52-.13-.47-.02-.96-.03-1.45-.03-2.55,0-4.52.44-5.86,1.32-1.37.89-2.06,2.22-2.06,3.95,0,1.61.56,2.92,1.67,3.89,1.1.96,2.57,1.44,4.36,1.44,1.29,0,2.42-.27,3.37-.79.75-.42,1.38-.98,1.88-1.67v2.15h3.09v-11.1c0-2.08-.61-3.72-1.81-4.87-1.2-1.15-2.89-1.74-5.03-1.74ZM84.33,19.92c-.75.74-1.79,1.11-3.1,1.11-.97,0-1.76-.25-2.34-.75-.58-.5-.86-1.14-.86-1.96,0-.94.36-1.61,1.1-2.06.77-.46,1.96-.69,3.54-.69.42,0,.87.02,1.33.05.42.03.9.07,1.45.12v1.2h.01c0,1.24-.38,2.25-1.13,2.98Z"/>
  <path class="cls-1" d="M100.04,20.22h-.01c-.34.07-.69.11-1.06.11-.8,0-1.45-.22-1.93-.65-.48-.43-.72-1.21-.72-2.32v-8.17h5.13v-3.16h-5.13V.99h-3.64v5.03h-3.75v3.16h3.75v8.91c0,1.27.24,2.34.7,3.17.47.85,1.13,1.48,1.96,1.88.83.4,1.79.6,2.86.6.52,0,1.02-.04,1.5-.13.47-.09.97-.26,1.48-.5l.11-.05v-3.29l-.28.13c-.31.14-.63.25-.97.32Z"/>
  <path class="cls-1" d="M115.68,8.29c-.75-.82-1.66-1.46-2.7-1.91-1.04-.45-2.19-.67-3.43-.67s-2.36.23-3.4.67c-1.04.45-1.95,1.09-2.71,1.91s-1.36,1.78-1.79,2.87c-.42,1.09-.64,2.29-.64,3.57s.22,2.48.64,3.57c.42,1.09,1.02,2.05,1.79,2.87.76.82,1.68,1.46,2.71,1.91,1.04.45,2.18.67,3.4.67s2.39-.23,3.43-.67c1.04-.45,1.94-1.09,2.7-1.91.75-.82,1.35-1.78,1.77-2.87.42-1.09.64-2.29.64-3.57s-.22-2.48-.64-3.57c-.42-1.09-1.02-2.05-1.77-2.87ZM113.71,17.81c-.42.86-1,1.53-1.72,1.99-.72.46-1.54.69-2.44.69s-1.69-.23-2.41-.69c-.72-.46-1.3-1.13-1.72-1.99-.42-.87-.64-1.9-.64-3.09s.21-2.25.64-3.1c.42-.85,1-1.51,1.72-1.95.72-.44,1.53-.68,2.41-.68s1.72.23,2.44.68c.72.45,1.3,1.11,1.72,1.95.42.86.64,1.9.64,3.1s-.21,2.22-.64,3.09Z"/>
  <path class="cls-1" d="M129.34,5.79c-1.42,0-2.75.35-3.96,1.05v.02c-1,.57-1.79,1.31-2.39,2.22v-3.05h-3.41v17.39h3.64v-8.89c0-1.21.26-2.2.78-2.95.52-.74,1.24-1.28,2.15-1.61.78-.28,1.66-.42,2.62-.42.18,0,.37,0,.56.01h.21v-3.77h-.2Z"/>
</svg>