<svg width="122" height="19" viewBox="0 0 122 19" fill="none" xmlns="http://www.w3.org/2000/svg">
<g clip-path="url(#clip0_1_13)">
<path d="M100.069 5.169C99.2771 4.68551 98.2765 4.44209 97.0661 4.44209C95.8557 4.44209 94.9005 4.66033 94.1467 5.09849C93.3929 5.53666 92.8238 6.10073 92.4427 6.78904C92.06 7.47902 91.8148 8.22273 91.7024 9.02351H91.4438C91.3616 8.37718 91.1971 7.77113 90.9469 7.20706C90.5742 6.36934 90.0018 5.69782 89.2278 5.19586C88.4539 4.69223 87.4634 4.44209 86.253 4.44209C85.0426 4.44209 84.1293 4.66033 83.4024 5.09849C82.6755 5.53666 82.1265 6.0957 81.7538 6.77561C81.3812 7.45552 81.1293 8.18579 81.0001 8.96811H80.7768V4.72077H76.8937V9.55233C76.741 8.80359 76.4808 8.12704 76.1081 7.52939C75.4752 6.51372 74.5854 5.74651 73.4405 5.2244C72.2955 4.70398 70.9575 4.44209 69.4315 4.44209C67.9055 4.44209 66.5305 4.73923 65.3655 5.3352C64.2004 5.93117 63.2938 6.77393 62.6408 7.86346C62.3453 8.35535 62.122 8.89256 61.9592 9.46671V0H57.7673V8.43761H57.5154C57.2922 7.26414 56.7331 6.30555 55.8383 5.56016C54.9435 4.81478 53.6676 4.44209 52.0107 4.44209C50.6324 4.44209 49.4539 4.73923 48.4768 5.3352C47.4998 5.93117 46.7544 6.77393 46.2423 7.86346C46.0224 8.33017 45.8529 8.83716 45.727 9.37941C45.6195 8.61221 45.4013 7.92054 45.0655 7.30443C44.5719 6.40124 43.8148 5.69782 42.8025 5.19754C41.7852 4.69223 40.4975 4.44041 38.9312 4.44041C37.3649 4.44041 36.0773 4.69055 34.9508 5.18243C33.8243 5.676 32.9513 6.3643 32.3386 7.25071C32.0347 7.68719 31.8047 8.15725 31.6503 8.66089C31.4925 8.17404 31.2692 7.7258 30.9737 7.30443C30.3408 6.40124 29.4561 5.69782 28.3212 5.19754C27.183 4.69223 25.8601 4.44041 24.3526 4.44041C22.7695 4.44041 21.3811 4.73923 20.1892 5.3352C19.0644 5.89928 18.1864 6.68495 17.5501 7.69055L14.1657 0H8.18579L0 18.7202H4.6939L6.47678 14.5854H15.8277L17.6005 18.7202H21.7437C21.8428 18.7202 21.9418 18.732 22.0392 18.7538C22.7577 18.9166 23.5283 19.0006 24.3526 19.0006C25.8601 19.0006 27.183 18.7488 28.3212 18.2468C29.4561 17.7415 30.3408 17.0397 30.9737 16.1366C31.0459 16.0341 31.1147 15.9301 31.1752 15.8243C31.2961 16.7157 31.7107 17.4393 32.4225 17.995C33.2804 18.6665 34.4606 19.0023 35.9698 19.0023C37.479 19.0023 38.7969 18.69 39.7572 18.0638C40.7158 17.441 41.352 16.5898 41.6693 15.5087H41.8926V18.7202H45.8042V14.3587C45.9234 14.7885 46.0711 15.1948 46.2558 15.5775C46.7779 16.6671 47.5417 17.5098 48.5473 18.1058C49.5529 18.7017 50.7818 19.0006 52.2356 19.0006C53.8372 19.0006 55.103 18.6514 56.0347 17.953C56.9665 17.2546 57.5624 16.2155 57.8227 14.8372H58.0459V18.7202H61.9575V14.1757C62.1187 14.7784 62.3436 15.3274 62.6391 15.8159C63.2905 16.897 64.2121 17.6978 65.4058 18.2183C66.5977 18.7404 67.9659 19.0006 69.5121 19.0006C71.0583 19.0006 72.3006 18.7807 73.4102 18.3442C74.5182 17.906 75.3795 17.2966 75.9939 16.5143C76.5143 15.8512 76.8132 15.1075 76.8921 14.2848V18.7219H81.0823V11.6525C81.0823 10.4421 81.3056 9.56576 81.7522 9.02687C82.1987 8.4863 83.065 8.21601 84.3509 8.21601C85.5613 8.21601 86.3991 8.45776 86.8658 8.94293C87.3308 9.4281 87.5642 10.2474 87.5642 11.4024V18.7219H91.7544V11.6525C91.7544 10.4421 91.9827 9.56576 92.4394 9.02687C92.896 8.4863 93.7572 8.21601 95.023 8.21601C96.2888 8.21601 97.0712 8.45776 97.5379 8.94293C98.0029 9.4281 98.2362 10.2474 98.2362 11.4024V18.7219H102.426V10.0039C102.426 8.94293 102.23 7.99273 101.839 7.15501C101.448 6.3173 100.857 5.65585 100.064 5.17068L100.069 5.169ZM8.10353 10.8131L9.86291 6.73364L11.0078 3.82765H11.3151L12.46 6.73364L14.2093 10.8131H8.10185H8.10353ZM41.1556 14.8506C40.8081 15.2686 40.3128 15.5725 39.6581 15.7571C39.0067 15.9435 38.1791 16.0375 37.1718 16.0375C36.5574 16.0375 36.1024 15.9536 35.8036 15.7857C35.5048 15.6195 35.3571 15.3492 35.3571 14.9765C35.3571 14.6408 35.4712 14.394 35.7062 14.2345C35.9379 14.0767 36.3056 13.9793 36.8109 13.9424L41.6576 13.3884C41.624 13.9877 41.4595 14.4779 41.1556 14.8506ZM41.671 10.9827L35.6643 11.5971C34.657 11.7096 33.821 11.9177 33.1494 12.225C32.7851 12.3912 32.4695 12.5876 32.2043 12.8125C31.9961 12.9905 31.7292 13.0812 31.4555 13.0812H27.7521C27.6917 13.8232 27.3878 14.3604 26.8405 14.681C26.2261 15.0453 25.3699 15.2266 24.272 15.2266C23.0246 15.2266 22.1063 14.9631 21.5188 14.4326C20.9345 13.9021 20.6391 13.0022 20.6391 11.7348C20.6391 10.4673 20.9345 9.51875 21.5188 8.99833C22.1063 8.47622 23.0246 8.21601 24.272 8.21601C25.3699 8.21601 26.2278 8.39732 26.8405 8.76162C27.3945 9.08563 27.6984 9.62788 27.7555 10.3817H35.6357V10.2843C35.6357 9.4835 35.8708 8.92446 36.3358 8.60717C36.8008 8.29156 37.5663 8.13375 38.6273 8.13375C39.7454 8.13375 40.5311 8.29156 40.9877 8.60717C41.4444 8.92614 41.6727 9.5389 41.6727 10.4505V10.9843L41.671 10.9827ZM57.7689 11.8187C57.7689 12.6195 57.6111 13.2675 57.2938 13.7611C56.9765 14.2546 56.5166 14.6139 55.9105 14.8372C55.3045 15.0604 54.5557 15.1729 53.6609 15.1729C52.7661 15.1729 52.0258 15.0604 51.4399 14.8372C50.8523 14.6139 50.4192 14.2513 50.1405 13.7476C49.8618 13.244 49.7208 12.5742 49.7208 11.7364C49.7208 10.8987 49.8601 10.1768 50.1405 9.68328C50.4192 9.18971 50.8523 8.83045 51.4399 8.60717C52.0258 8.38389 52.7678 8.27141 53.6609 8.27141C55.0023 8.27141 56.0213 8.52323 56.7197 9.02519C57.4181 9.52883 57.7673 10.385 57.7673 11.5954V11.8187H57.7689ZM66.3845 8.53498C66.9435 7.98602 67.9307 7.71069 69.3459 7.71069C70.6486 7.71069 71.5904 7.94405 72.1679 8.40907C72.6816 8.82373 72.9654 9.47678 73.0224 10.3649H65.5938C65.6945 9.56744 65.9564 8.95636 66.3845 8.53498ZM72.727 13.5227V13.8014C72.727 14.3973 72.4752 14.854 71.9732 15.1713C71.4696 15.4885 70.6033 15.6463 69.3744 15.6463C67.9407 15.6463 66.9435 15.3727 66.3845 14.8221C65.8842 14.3302 65.6106 13.5798 65.5569 12.5725H76.8937V13.5227H72.727Z" fill="black"/>
<path d="M107.426 0H103.236V3.29715H107.426V0Z" fill="black"/>
<path d="M120.861 7.30607C120.368 6.40288 119.614 5.69946 118.598 5.1975C117.583 4.69387 116.293 4.44373 114.729 4.44373C113.164 4.44373 111.875 4.69051 110.747 5.18407C109.62 5.67764 108.749 6.36762 108.134 7.25235C107.814 7.71401 107.579 8.21262 107.426 8.74815V4.72408H103.236V18.7219H107.426V17.122C107.627 17.4477 107.891 17.7398 108.218 17.9966C109.074 18.6681 110.258 19.0022 111.767 19.0022C113.277 19.0022 114.593 18.69 115.553 18.0671C116.512 17.4426 117.149 16.5915 117.467 15.5103H117.69V18.7235H121.602V10.5092C121.602 9.28033 121.355 8.21429 120.861 7.30942V7.30607ZM116.95 14.8506C116.604 15.2703 116.107 15.5724 115.456 15.7588C114.804 15.9451 113.975 16.0375 112.969 16.0375C112.355 16.0375 111.898 15.9535 111.599 15.7856C111.301 15.6178 111.153 15.3475 111.153 14.9748C111.153 14.639 111.269 14.3923 111.502 14.2344C111.735 14.0766 112.103 13.9793 112.605 13.9407L117.452 13.3883C117.416 13.986 117.255 14.4779 116.95 14.8489V14.8506ZM117.467 10.9809L111.46 11.5954C110.454 11.7079 109.617 11.916 108.945 12.2233C108.274 12.5305 107.772 12.9351 107.436 13.4387C107.433 13.4454 107.429 13.4521 107.426 13.4572V10.3934H111.432V10.2809C111.432 9.4801 111.663 8.92107 112.13 8.60377C112.595 8.28816 113.359 8.12868 114.421 8.12868C115.54 8.12868 116.325 8.28648 116.782 8.60377C117.238 8.92107 117.467 9.5355 117.467 10.4471V10.9793V10.9809Z" fill="black"/>
</g>
<defs>
<clipPath id="clip0_1_13">
<rect width="121.602" height="19.0006" fill="white"/>
</clipPath>
</defs>
</svg>
