<svg width="252" height="252" viewBox="0 0 252 252" fill="none" xmlns="http://www.w3.org/2000/svg">
<rect width="252" height="252" rx="50" fill="#202020"/>
<g clip-path="url(#clip0_2830_5879)">
<path d="M180.995 101.609V124.957C156.844 124.957 137.209 144.567 137.209 168.66V117.861C148.975 107.734 164.282 101.609 180.995 101.609Z" fill="#59856D"/>
<path d="M137.195 117.875V184.004H113.803V168.674C113.803 148.395 122.874 130.174 137.195 117.875Z" fill="#FFF5F5"/>
<path d="M137.203 69V117.867C122.895 130.166 113.811 148.387 113.811 168.667V183.996C113.811 159.891 94.1511 140.268 70 140.268V116.92C86.7248 116.92 102.02 123.045 113.811 133.172V69H137.203Z" fill="#269E5F"/>
</g>
<defs>
<clipPath id="clip0_2830_5879">
<rect width="111" height="115" fill="white" transform="translate(70 69)"/>
</clipPath>
</defs>
</svg>
